# xmcd
#
# Track frame offsets:
#	150
#	16316
#	27518
#	39936
#	51222
#	64522
#	75331
#	91452
#	102440
#	113683
#
# Disc length: 1650
#
# Revision: 2
# Processed by: cddbd v1.5.1PL0 Copyright (c) Steve Scherf et al.
# Submitted via: dBpowerAMP V4.0
# Normalized: r0:TSWAP
#
DISCID=7006700a
DTITLE=Various Artist - Country Ladies
DYEAR=1900
DGENRE=Country
TTITLE0=Brenda Lee - Coming On Strong
TTITLE1=Loretta Lynn - Hey Loretta
TTITLE2=Patsy Cline - A Poor Man's Roses
TTITLE3=Jo Anne Houston - The Race Is On
TTITLE4=Dottie West - D.I.V.O.R.C.E.
TTITLE5=Billie Jo Spears - I'm So Lonesome I Could Cry
TTITLE6=Anne Murray - Both Sides Now
TTITLE7=Donna Fargo - Wishful Thinking
TTITLE8=Jeannie C. Riley - Box Of Memories
TTITLE9=Loretta Lynn - Out Of My Head And Back In Bed
EXTD=
EXTT0=
EXTT1=
EXTT2=
EXTT3=
EXTT4=
EXTT5=
EXTT6=
EXTT7=
EXTT8=
EXTT9=
PLAYORDER=
